<?xml version="1.0" encoding="utf-8"?>
<!-- Generator: Adobe Illustrator 25.0.0, SVG Export Plug-In . SVG Version: 6.00 Build 0)  -->
<svg version="1.1" id="Layer_1" xmlns="http://www.w3.org/2000/svg" xmlns:xlink="http://www.w3.org/1999/xlink" x="0px" y="0px"
	 viewBox="0 0 53.5 36.5" style="enable-background:new 0 0 53.5 36.5;" xml:space="preserve">
<style type="text/css">
	.st0{fill:#EABA0B;}
</style>
<path id="Path_164" class="st0" d="M48.1,3.3H30.4V2.4C30.4,1,29.2,0,27.8,0h-5.3c-1.4,0-2.5,1-2.6,2.4v1c-2.5,0.3-4.9,1.2-6.8,2.8
	l-9.7,8.4c-2,1.9-3.2,4.4-3.3,7.1v9.8c0.1,2.8,2.4,5,5.2,5c-0.3-0.9-0.5-1.9-0.5-2.8c0-4.9,4.2-8.8,9.4-8.8s9.4,3.9,9.4,8.8
	c0,1-0.2,1.9-0.5,2.9h8.2c-0.3-0.9-0.5-1.9-0.5-2.9c0-4.9,4.2-8.8,9.4-8.8s9.4,3.9,9.4,8.8c0,0.9-0.2,1.9-0.5,2.8
	c2.5-0.3,4.4-2.4,4.5-4.9V8.4C53.4,5.5,51,3.2,48.1,3.3z M15.4,16.6H5.3l0,0L15,8.2C15.2,8.1,15.3,8,15.4,8V16.6z M39,18.6h-5v4.6
	h-4.8v-4.6h-5v-4.5h5V9.5H34v4.6h5V18.6z"/>
</svg>
