<?xml version="1.0" encoding="utf-8"?>
<!-- Generator: Adobe Illustrator 25.0.0, SVG Export Plug-In . SVG Version: 6.00 Build 0)  -->
<svg version="1.1" id="Layer_1" xmlns="http://www.w3.org/2000/svg" xmlns:xlink="http://www.w3.org/1999/xlink" x="0px" y="0px"
	 viewBox="0 0 25.7 50.3" style="enable-background:new 0 0 25.7 50.3;" xml:space="preserve">
<style type="text/css">
	.st0{fill:#EABA0B;}
</style>
<path id="Path_167" class="st0" d="M25.7,5.9L14.9,7V5.9h-1.5V5.6c-0.1-3.2-2.8-5.7-6-5.6l0,0c-3.2-0.1-5.9,2.4-6,5.6l0,0
	c0,1.7,0.8,3.2,2.1,4.3c-1.5,0.6-2.7,1.7-3.6,3L2.2,14c1.1-1.9,3.5-2.7,5.7-2.9h0.3C8.5,11.1,8.8,11,9,11v2.2
	c-1.4,3.8-7.9,4-7.9,10.7v26.5h22.2V23.9c0-7.3-7.7-6.8-8.2-11.7l10.5,0.7L25.7,5.9L25.7,5.9z M7.5,2.4c1.8-0.1,3.4,1.4,3.4,3.2l0,0
	v0.3H9.1v2.5c-0.5,0.3-1,0.4-1.6,0.4C5.7,8.9,4.2,7.5,4.1,5.6l0,0C4.1,3.8,5.6,2.4,7.5,2.4C7.4,2.4,7.4,2.4,7.5,2.4z"/>
</svg>
