<?xml version="1.0" encoding="utf-8"?>
<!-- Generator: Adobe Illustrator 25.0.0, SVG Export Plug-In . SVG Version: 6.00 Build 0)  -->
<svg version="1.1" id="Layer_1" xmlns="http://www.w3.org/2000/svg" xmlns:xlink="http://www.w3.org/1999/xlink" x="0px" y="0px"
	 viewBox="0 0 45.5 47" style="enable-background:new 0 0 45.5 47;" xml:space="preserve">
<style type="text/css">
	.st0{fill:#EABA0B;}
</style>
<path id="Path_163" class="st0" d="M9.2,0l-8,7.8C8.9,14.1,0,20,0,27.4C0,32.9,7.5,44.3,22.8,47c15.3-2.7,22.8-14.1,22.8-19.6
	c0-7.4-8.9-13.3-1.2-19.6l-8-7.8c-4.2,2.2-8.8,3.4-13.5,3.4C18,3.4,13.4,2.2,9.2,0z M22.8,12.9l3.1,7.8h8.6l-7.4,4.5l3.1,7.8
	l-7.4-4.5L15.4,33l3.1-7.8l-7.4-4.5h8.6L22.8,12.9z"/>
</svg>
