<svg xmlns="http://www.w3.org/2000/svg" overflow="hidden" style="position:relative" viewBox="61.38 133.78 772.42 412.19">
  <defs>
    <filter id="a">
      <feGaussianBlur stdDeviation="4.02"/>
    </filter>
  </defs>
  <path fill="#2ecc71" stroke="#2ecc71" d="M121.4 203.46h197.5-.5l.95-.02h.95l.95.02.94.03.95.05.95.06.94.07.94.1.95.1.94.13.94.13.93.16.94.16.93.19.92.2.93.2.92.23.9.25.93.25.9.28.9.28.9.3.9.32.9.33.88.35.87.36.87.37.87.39.86.4.85.41.85.43.84.44.83.46.82.47.82.48.8.5.8.5.8.53.78.53.78.55.76.56.76.57.74.59.74.6.73.6.72.62.7.63.7.65.69.65.68.66.66.68.66.69.64.7.63.7.62.72.6.72.6.74.59.75.57.75.56.77.55.77.54.79.52.79.5.8.5.8.49.82.47.83.45.83.45.84.43.84.4.85.4.86.4.87.37.87.36.88.35.88.33.89.32.9.3.9.29.9.27.9.26.91.24.92.23.92.2.93.2.92.2.93.16.94.16.93.13.94.13.94.1.94.1.95.08.94.06.95.04.95.03.94.02.95v180.45-.5.95l-.03.95-.03.96-.06.95-.06.95-.08.95-.1.94-.11.95-.13.94-.14.94-.16.94-.17.94-.2.93-.2.94-.2.92-.23.93-.25.92-.26.91-.27.92-.3.9-.3.9-.31.9-.34.9-.34.88-.36.88-.38.88-.4.87-.4.86-.4.86-.43.85-.44.84-.46.84-.47.83-.48.82-.5.81-.5.8-.53.8-.53.8-.55.78-.55.77-.58.76-.58.75-.6.75-.6.73-.62.73-.63.71-.64.7-.65.7-.66.69-.68.67-.68.66-.7.65-.7.64-.71.63-.73.62-.73.6-.75.6-.75.58-.76.57-.77.56-.78.55-.8.53-.8.52-.8.51-.81.5-.82.48-.83.47-.83.45-.85.45-.85.43-.86.41-.86.4-.87.4-.88.37-.88.36-.88.34-.9.33-.9.32-.9.3-.9.3-.92.27-.91.26-.92.25-.93.23-.92.21-.93.2-.94.19-.94.17-.94.16-.94.14-.94.13-.95.11-.94.1-.95.08-.95.06-.95.06-.95.03-.96.02-.95.01H120.45l-.95-.03-.96-.03-.95-.06-.95-.06-.95-.08-.94-.1-.95-.11-.94-.13-.94-.14-.94-.16-.94-.17-.94-.19-.92-.2-.93-.21-.93-.23-.92-.25-.91-.26-.92-.27-.9-.3-.9-.3-.9-.32-.9-.33-.88-.34-.88-.36-.88-.38-.87-.39-.86-.4-.86-.41-.85-.43-.84-.45-.84-.45-.83-.47-.82-.48-.81-.5-.8-.5-.8-.53-.8-.53-.78-.55-.77-.56-.76-.57-.75-.58-.75-.6-.73-.6-.73-.62-.71-.63-.7-.64-.7-.65-.7-.66-.66-.68-.66-.68-.65-.7-.64-.7-.63-.71-.62-.73-.6-.73-.6-.75-.58-.75-.57-.76-.56-.77-.55-.78-.53-.8-.52-.8-.51-.8-.5-.81-.48-.82-.47-.83-.45-.84-.45-.84-.42-.85-.42-.86-.4-.86-.4-.87-.37-.88-.36-.88-.34-.88-.33-.9-.32-.9-.3-.9-.3-.9-.27-.92-.26-.91-.24-.92-.24-.93-.21-.92-.2-.94-.2-.93-.16-.94-.16-.94L62 450l-.13-.94-.1-.95-.1-.94-.1-.95-.05-.95-.06-.95-.03-.96-.02-.95-.01-.95.5-178.67-.5-.33-.02-.95v-.96l.02-.95.03-.95.05-.95.06-.95.08-.95.1-.95.1-.95.13-.94.15-.94.15-.94.17-.94.2-.93.2-.94.2-.92.25-.93.25-.92.26-.91.28-.91.3-.9.3-.9.33-.9.34-.9.35-.88.37-.88.39-.87.4-.87.4-.86.43-.85.44-.84.45-.84.47-.83.48-.83.5-.8.5-.82.53-.8.53-.78.55-.78.56-.77.57-.76.59-.75.6-.75.6-.73.63-.72.63-.71.64-.7.66-.7.67-.67.68-.67.69-.66.7-.64.7-.64.73-.62.74-.6.74-.6.75-.6.76-.56.77-.56.78-.55.8-.53.8-.53.8-.5.8-.5.83-.48.83-.47.84-.45.85-.44.85-.42.86-.42.87-.4.87-.38.88-.36.88-.36.9-.34.89-.32.9-.31.9-.3.92-.27.9-.27.93-.25.92-.23.93-.22.93-.2.94-.19.93-.17.94-.16.95-.14.94-.13.95-.1.95-.1.95-.08.95-.06.95-.05.95-.03.95-.02h.95l.96.02.95.03Z"/>
  <path fill="none" d="M77.33 194.83H356V455H77.33z"/>
  <text x="95.89" y="234.53" style="white-space:pre"><tspan x="95.89" y="247.03" font-family="Courier New,Courier,Lucida Sans Typewriter,Lucida Typewriter,monospace" font-size="15.3" font-weight="bold" text-rendering="optimizeSpeed" textLength="55.01" word-spacing="0">&lt;html&gt;</tspan><tspan x="95.89" y="264.39" font-family="Courier New,Courier,Lucida Sans Typewriter,Lucida Typewriter,monospace" font-size="15.3" font-weight="bold" text-rendering="optimizeSpeed" textLength="73.35" word-spacing="0">  &lt;head&gt;</tspan><tspan x="123.4" y="281.75" fill="#FF0" font-family="Courier New,Courier,Lucida Sans Typewriter,Lucida Typewriter,monospace" font-size="15.3" font-weight="bold" text-rendering="optimizeSpeed" textLength="91.69" word-spacing="0"> HTML HEAD</tspan><tspan x="95.89" y="299.11" font-family="Courier New,Courier,Lucida Sans Typewriter,Lucida Typewriter,monospace" font-size="15.3" font-weight="bold" text-rendering="optimizeSpeed" textLength="82.52" word-spacing="0">  &lt;/head&gt;</tspan><tspan x="95.89" y="316.47" font-family="Courier New,Courier,Lucida Sans Typewriter,Lucida Typewriter,monospace" font-size="15.3" font-weight="bold" text-rendering="optimizeSpeed" textLength="73.35" word-spacing="0">  &lt;body&gt;</tspan><tspan x="95.89" y="333.84" font-family="Courier New,Courier,Lucida Sans Typewriter,Lucida Typewriter,monospace" font-size="15.3" font-weight="bold" text-rendering="optimizeSpeed" textLength="165.03" word-spacing="0">    &lt;div id=&quot;nav&quot;&gt;</tspan><tspan x="150.9" y="351.2" fill="#FF0" font-family="Courier New,Courier,Lucida Sans Typewriter,Lucida Typewriter,monospace" font-size="15.3" font-weight="bold" text-rendering="optimizeSpeed" textLength="137.53" word-spacing="0">NAVIGATION MENU</tspan><tspan x="95.89" y="368.56" font-family="Courier New,Courier,Lucida Sans Typewriter,Lucida Typewriter,monospace" font-size="15.3" font-weight="bold" text-rendering="optimizeSpeed" textLength="91.69" word-spacing="0">    &lt;/div&gt;</tspan><tspan x="95.89" y="385.92" font-family="Courier New,Courier,Lucida Sans Typewriter,Lucida Typewriter,monospace" font-size="15.3" font-weight="bold" text-rendering="optimizeSpeed" textLength="238.38" word-spacing="0">    &lt;div id=&quot;maincontent&quot;&gt;</tspan><tspan x="150.9" y="403.28" fill="#FF0" font-family="Courier New,Courier,Lucida Sans Typewriter,Lucida Typewriter,monospace" font-size="15.3" font-weight="bold" text-rendering="optimizeSpeed" textLength="155.86" word-spacing="0">MAIN PAGE CONTENT</tspan><tspan x="95.89" y="420.64" font-family="Courier New,Courier,Lucida Sans Typewriter,Lucida Typewriter,monospace" font-size="15.3" font-weight="bold" text-rendering="optimizeSpeed" textLength="91.69" word-spacing="0">    &lt;/div&gt;</tspan><tspan x="95.89" y="438" font-family="Courier New,Courier,Lucida Sans Typewriter,Lucida Typewriter,monospace" font-size="15.3" font-weight="bold" text-rendering="optimizeSpeed" textLength="82.52" word-spacing="0">  &lt;/body&gt;</tspan><tspan x="95.89" y="455.36" font-family="Courier New,Courier,Lucida Sans Typewriter,Lucida Typewriter,monospace" font-size="15.3" font-weight="bold" text-rendering="optimizeSpeed" textLength="64.18" word-spacing="0">&lt;/html&gt;</tspan></text>
  <path fill="#2ecc71" fill-opacity=".3" stroke="#2ecc71" d="M539.41 133.85h225.67-.57l1.08-.03h1.09l1.08.03 1.08.04 1.08.07 1.09.08 1.07.1 1.08.14 1.08.14 1.08.18 1.07.18 1.06.22 1.08.22 1.06.26 1.05.28 1.06.28 1.05.31 1.04.35 1.06.35 1.02.38 1.03.39 1.03.41 1.03.45 1.03.45 1 .49 1 .5 1 .5.99.55.98.55.97.57.97.6.96.6.95.64.94.65.93.66.92.7.91.68.91.74.9.73.89.76.87.77.86.8.85.8.85.84.83.83.82.86.8.87.8.9.79.9.78.9.75.95.75.95.74.97.72.97.7 1 .69.99.69 1.02.67 1.04.65 1.04.64 1.06.63 1.07.62 1.09.59 1.1.57 1.1.57 1.1.56 1.14.54 1.15.51 1.14.52 1.17.49 1.16.47 1.17.45 1.2.46 1.2.41 1.2.41 1.22.4 1.21.38 1.23.37 1.25.34 1.24.33 1.25.31 1.24.3 1.26.27 1.27.26 1.28.24 1.28.23 1.27.22 1.3.18 1.3.18 1.28.15 1.3.15 1.3.12 1.3.11 1.31.1 1.3.06 1.32.05 1.3.03 1.3.02 1.32V463.7v-.7 1.32l-.03 1.31-.03 1.33-.07 1.31-.07 1.32-.1 1.31-.1 1.3-.13 1.32-.15 1.3-.16 1.3-.18 1.3-.2 1.3-.22 1.28-.23 1.3-.24 1.27-.26 1.3-.28 1.26-.3 1.26-.3 1.27-.35 1.25-.34 1.24-.36 1.25-.39 1.24-.39 1.22-.4 1.22-.44 1.22-.45 1.2-.45 1.19-.47 1.19-.5 1.17-.5 1.16-.52 1.17-.54 1.14-.55 1.14-.57 1.12-.57 1.1-.6 1.11-.61 1.1-.63 1.09-.63 1.06-.66 1.05-.66 1.04-.69 1.03-.68 1.02-.71 1-.72.99-.73.97-.75.96-.75.96-.78.92-.77.92-.8.9-.8.88-.82.87-.83.86-.83.83-.86.83-.86.8-.87.79-.88.77-.89.76-.91.74-.9.72-.92.7-.93.7-.94.66-.95.65-.95.62-.97.62-.97.6-.98.56-.99.56-.99.55-1 .51-1.01.5-1 .47-1.03.46-1.03.44-1.03.41-1.03.42-1.05.37-1.04.36-1.05.35-1.07.31-1.05.3-1.06.27-1.07.26-1.08.24-1.07.22-1.08.2-1.07.18-1.08.15-1.08.13-1.08.12-1.09.08-1.09.08-1.08.04-1.1.03-1.08.01H538.33l-1.09-.04-1.1-.04-1.08-.08-1.09-.08-1.08-.12-1.07-.13-1.1-.15-1.07-.19-1.07-.19-1.07-.22-1.08-.24-1.07-.26-1.05-.27-1.06-.3-1.07-.31-1.05-.35-1.04-.36-1.05-.37-1.03-.42-1.03-.41-1.02-.44-1.03-.46-1-.47-1.01-.5-1-.52-1-.54-.99-.56-.98-.56-.97-.6-.96-.62-.96-.62-.95-.65-.93-.67-.93-.69-.91-.69-.92-.73-.91-.74-.9-.76-.87-.77-.87-.79-.86-.8-.86-.83-.83-.83-.83-.86-.81-.87-.8-.88-.8-.9-.8-.92-.76-.94-.75-.94-.75-.96-.73-.97-.72-.99-.7-1-.7-1.01-.68-1.04-.66-1.04-.65-1.05-.64-1.06-.63-1.08-.6-1.1-.6-1.12-.58-1.1-.57-1.12-.55-1.14-.54-1.14-.51-1.17-.52-1.16-.48-1.17-.48-1.2-.45-1.18-.46-1.2-.42-1.22-.41-1.22-.4-1.22-.37-1.24-.37-1.25-.34-1.24-.34-1.25-.3-1.27-.3-1.26-.28-1.27-.28-1.29-.24-1.27-.22-1.3-.22-1.28-.2-1.3-.18-1.3-.16-1.3-.15-1.3-.11-1.32-.11-1.3-.1-1.31-.08-1.31-.06-1.32-.04-1.33-.02-1.3-.01-1.32.57-247.1-.57-.45-.03-1.32v-1.33l.03-1.3.03-1.32.06-1.32.07-1.31.09-1.31.11-1.32.12-1.31.15-1.3.17-1.3.17-1.3.2-1.3.22-1.29.23-1.3.24-1.27.27-1.29.29-1.27.3-1.26.32-1.26.34-1.24.34-1.25.38-1.24.39-1.25.4-1.21.42-1.22.45-1.2.45-1.2.46-1.2.5-1.17.5-1.16.5-1.16.55-1.15.54-1.15.57-1.1.58-1.14.6-1.1.6-1.08.63-1.08.64-1.07.66-1.05.67-1.04.69-1.03.68-1.01.72-1 .72-.98.73-.97.76-.97.76-.92.78-.93.79-.91.8-.89.8-.88.83-.86.85-.83.84-.83.86-.83.87-.77.88-.78.89-.76.91-.73.92-.74.91-.69.93-.69.93-.66.95-.65.96-.63.97-.6.97-.58.99-.58 1-.56.99-.52 1-.5 1-.5 1.03-.47 1.02-.44 1.03-.43 1.03-.42 1.05-.37 1.04-.37 1.05-.35 1.05-.32 1.06-.3 1.07-.28 1.07-.26 1.06-.23 1.08-.23 1.08-.19 1.08-.18 1.08-.14 1.09-.14 1.08-.1 1.09-.09 1.08-.07 1.09-.04 1.09-.03h1.08l1.1.03 1.08.04Z"/>
  <path fill="none" d="M516.33 134.83H804.5V315H516.33z"/>
  <path fill="#3498db" stroke="#2ecc71" d="M546.04 144.57h197.5-.5 2.86l.94.02.95.03.95.03.94.04.94.06.95.05.94.08.94.07.93.09.94.09.93.1.92.12.93.1.92.14.91.14.92.14.9.15.9.16.9.17.9.18.9.18.88.2.87.2.87.2.87.22.86.23.85.23.85.24.84.25.83.25.82.27.82.26.8.28.8.28.8.3.78.3.78.3.76.32.76.32.74.33.74.34.73.33.72.35.7.35.7.37.7.36.67.37.66.38.66.39.64.39.63.39.62.4.6.4.6.42.6.42.56.42.56.43.55.43.54.44.52.45.5.44.5.45.5.46.46.47.45.46.45.47.43.47.41.48.4.48.4.49.36.48.36.5.35.49.33.5.32.5.3.5.3.51.26.5.26.51.24.52.23.51.21.52.2.52.2.52.15.53.16.52.13.52.13.53.1.53.1.53.08.52.06.54.04.53.03.52.02.54V278.1v-.28.54l-.03.53-.03.53-.06.54-.06.53-.08.53-.1.53-.1.53-.14.53-.14.52-.16.53-.17.52-.19.52-.2.53-.2.52-.24.52-.25.51-.26.51-.27.52-.3.5-.3.5-.3.5-.35.51-.34.5-.36.49-.38.49-.39.49-.4.48-.4.48-.44.48-.44.47-.46.47-.47.46-.48.46-.5.45-.5.45-.53.45-.53.45-.55.44-.55.43-.58.42-.58.42-.6.42-.6.41-.62.4-.63.4-.64.4-.65.39-.66.39-.68.37-.68.37-.7.36-.7.36-.7.36-.74.34-.73.34-.75.34-.75.32-.76.32-.77.31-.78.31-.8.3-.79.29-.8.28-.82.28-.82.27-.83.27-.83.25-.85.25-.85.24-.86.23-.86.22-.87.23-.88.2-.88.2-.88.2-.9.18-.9.18-.9.17-.9.17-.92.15-.9.14-.93.14-.93.13-.92.12-.93.11-.94.1-.94.1-.94.1-.94.07-.94.08-.95.06-.94.05-.95.05-.95.03-.95.03-.95.02-.96.01H544.14l-.96-.03-.95-.03-.95-.03-.95-.05-.94-.05-.95-.06-.94-.08-.94-.08-.94-.09-.94-.1-.94-.1-.92-.1-.93-.13-.93-.13-.92-.14-.9-.14-.93-.15-.9-.17-.9-.17-.9-.18-.9-.18-.88-.2-.88-.2-.88-.2-.87-.23-.86-.22-.86-.23-.85-.24-.84-.25-.84-.25-.83-.27-.82-.27-.8-.28-.8-.28-.8-.3-.8-.29-.79-.3-.77-.32-.76-.32-.75-.32-.75-.34-.73-.34-.73-.34-.7-.36-.7-.36-.7-.36-.7-.37-.67-.38-.66-.38-.65-.4-.64-.38-.63-.4-.62-.41-.6-.4-.6-.43-.58-.42-.57-.42-.56-.44-.55-.43-.53-.45-.52-.45-.5-.45-.5-.45-.49-.46-.47-.46-.45-.47-.45-.47-.42-.48-.42-.48-.4-.48-.4-.49-.37-.5-.36-.49-.34-.49-.33-.5-.32-.5-.3-.51-.3-.5-.27-.52-.26-.5-.24-.52-.24-.52-.2-.52-.2-.53-.2-.52-.17-.52-.16-.53-.14-.52-.13-.53-.1-.53-.1-.53-.09-.53-.06-.53-.06-.54-.03-.53-.02-.53v-.54l.5-100.04-.5-.18-.03-.53v-.54l.02-.53.03-.53.05-.54.06-.53.08-.53.1-.53.1-.53.13-.53.15-.53.15-.52.17-.53.2-.52.2-.53.21-.51.24-.52.25-.52.26-.5.28-.52.3-.5.3-.5.33-.5.34-.51.35-.5.37-.49.4-.49.4-.48.4-.48.42-.48.44-.47.45-.47.47-.47.48-.46.5-.45.5-.46.53-.44.53-.44.55-.44.56-.43.57-.42.6-.43.6-.41.6-.41.62-.4.63-.4.64-.4.66-.39.67-.37.68-.38.7-.37.7-.36.7-.35.72-.35.74-.34.74-.33.75-.34.76-.31.77-.32.78-.3.8-.3.8-.3.8-.28.81-.28.82-.27.83-.26.84-.25.85-.25.85-.23.86-.24.87-.22.87-.22.88-.2.88-.2.9-.19.9-.18.9-.17.9-.17.91-.15.91-.15.92-.14.92-.13.93-.12.93-.12.94-.1.93-.1.94-.09.95-.08.94-.07.95-.05.95-.06.95-.05.95-.03.95-.03.95-.01.95-.02h.95l.96.02.95.01Z"/>
  <text style="white-space:pre" transform="translate(516.33 146.8)"><tspan x="0" y="12.5" font-family="Courier New,Courier,Lucida Sans Typewriter,Lucida Typewriter,monospace" font-size="15.28" font-weight="bold" text-rendering="optimizeSpeed" textLength="55.01">&lt;html&gt;</tspan><tspan x="0" y="29.86" font-family="Courier New,Courier,Lucida Sans Typewriter,Lucida Typewriter,monospace" font-size="15.28" font-weight="bold" text-rendering="optimizeSpeed" textLength="73.35">  &lt;head&gt;</tspan><tspan x="27.51" y="47.22" fill="#FF0" font-family="Courier New,Courier,Lucida Sans Typewriter,Lucida Typewriter,monospace" font-size="15.28" font-weight="bold" text-rendering="optimizeSpeed" textLength="91.69"> HTML HEAD</tspan><tspan x="0" y="64.58" font-family="Courier New,Courier,Lucida Sans Typewriter,Lucida Typewriter,monospace" font-size="15.28" font-weight="bold" text-rendering="optimizeSpeed" textLength="82.52">  &lt;/head&gt;</tspan><tspan x="0" y="81.94" font-family="Courier New,Courier,Lucida Sans Typewriter,Lucida Typewriter,monospace" font-size="15.28" font-weight="bold" text-rendering="optimizeSpeed" textLength="73.35">  &lt;body&gt;</tspan><tspan x="0" y="99.31" font-family="Courier New,Courier,Lucida Sans Typewriter,Lucida Typewriter,monospace" font-size="15.28" font-weight="bold" text-rendering="optimizeSpeed" textLength="165.03">    &lt;div id=&quot;nav&quot;&gt;</tspan><tspan x="55.01" y="116.67" fill="#FF0" font-family="Courier New,Courier,Lucida Sans Typewriter,Lucida Typewriter,monospace" font-size="15.28" font-weight="bold" text-rendering="optimizeSpeed" textLength="137.53">NAVIGATION MENU</tspan><tspan x="0" y="134.03" font-family="Courier New,Courier,Lucida Sans Typewriter,Lucida Typewriter,monospace" font-size="15.28" font-weight="bold" text-rendering="optimizeSpeed" textLength="91.69">    &lt;/div&gt;</tspan><tspan x="0" y="151.39" font-family="Courier New,Courier,Lucida Sans Typewriter,Lucida Typewriter,monospace" font-size="15.28" font-weight="bold" text-rendering="optimizeSpeed" textLength="238.38">    &lt;div id=&quot;maincontent&quot;&gt;</tspan></text>
  <path fill="#d35400" stroke="#2ecc71" d="M552.9 460.73h197.5-.5 3.78l.95.02.95.01.94.02.94.02.95.02.94.03.94.03.93.04.94.03.93.04.92.05.93.04.92.06.91.05.92.06.9.06.9.06.9.07.9.07.9.08.88.08.87.08.87.08.87.09.86.09.85.1.85.09.84.1.83.1.82.1.82.11.8.12.8.1.8.13.78.12.78.12.76.13.76.13.74.13.74.13.73.14.72.14.7.14.7.15.7.14.67.15.66.15.66.16.64.16.63.15.62.16.6.17.6.16.6.17.56.17.56.17.55.18.54.17.52.18.5.18.5.18.5.19.46.18.45.19.45.19.43.19.41.19.4.2.4.19.36.2.36.2.35.19.33.2.32.2.3.2.3.2.26.2.26.21.24.21.23.2.21.22.2.2.2.21.15.21.16.21.13.21.13.22.1.2.1.22.08.21.06.22.04.21.03.21.02.22v40.58-.11.21l-.03.22-.03.21-.06.22-.06.21-.08.21-.1.22-.1.21-.14.21-.14.21-.16.21-.17.22-.19.2-.2.22-.2.2-.24.21-.25.2-.26.21-.27.21-.3.2-.3.2-.3.2-.35.21-.34.2-.36.2-.38.2-.39.19-.4.2-.4.19-.44.19-.44.19-.46.19-.47.18-.48.19-.5.18-.5.18-.53.18-.53.18-.55.18-.55.17-.58.17-.58.17-.6.17-.6.16-.62.16-.63.16-.64.16-.65.16-.66.15-.68.15-.68.15-.7.15-.7.14-.7.14-.74.14-.73.14-.75.13-.75.13-.76.13-.77.13-.78.12-.8.12-.79.12-.8.11-.82.12-.82.1-.83.11-.83.1-.85.1-.85.1-.86.1-.86.08-.87.1-.88.08-.88.08-.88.07-.9.08-.9.07-.9.07-.9.06-.92.06-.9.06-.93.06-.93.05-.92.05-.93.04-.94.04-.94.04-.94.04-.94.03-.94.03-.95.02-.94.03-.95.02h-.95l-.95.02h-.95l-.96.01H550.03l-.95-.02-.95-.01-.95-.02-.94-.03-.95-.02-.94-.03-.94-.03-.94-.04-.94-.03-.94-.05-.92-.04-.93-.05-.93-.05-.92-.06-.9-.06-.93-.06-.9-.06-.9-.07-.9-.07-.9-.08-.88-.07-.88-.08-.88-.09-.87-.09-.86-.09-.86-.09-.85-.1-.84-.1-.84-.1-.83-.1-.82-.11-.8-.12-.8-.1-.8-.13-.8-.12-.79-.12-.77-.13-.76-.13-.75-.13-.75-.13-.73-.13-.73-.14-.7-.15-.7-.14-.7-.15-.7-.14-.67-.16-.66-.15-.65-.16-.64-.15-.63-.16-.62-.17-.6-.16-.6-.17-.58-.17-.57-.17-.56-.17-.55-.18-.53-.18-.52-.18-.5-.18-.5-.18-.49-.19-.47-.18-.45-.2-.45-.18-.42-.2-.42-.19-.4-.19-.4-.2-.37-.2-.36-.2-.34-.19-.33-.2-.32-.2-.3-.2-.3-.2-.27-.22-.26-.2-.24-.2-.24-.22-.2-.2-.2-.22-.2-.2-.17-.22-.16-.2-.14-.22-.13-.21-.1-.21-.1-.22-.09-.2-.06-.22-.06-.22-.03-.21-.02-.22v-.21l.5-40.19-.5-.07-.03-.21v-.22l.02-.21.03-.22.05-.21.06-.22.08-.2.1-.22.1-.22.13-.2.15-.22.15-.21.17-.21.2-.21.2-.21.21-.2.24-.22.25-.2.26-.21.28-.2.3-.2.3-.21.33-.2.34-.2.35-.2.37-.2.4-.2.4-.2.4-.19.42-.19.44-.19.45-.19.47-.18.48-.19.5-.18.5-.18.53-.18.53-.18.55-.17.56-.18.57-.17.6-.17.6-.17.6-.16.62-.16.63-.16.64-.16.66-.15.67-.16.68-.15.7-.15.7-.14.7-.14.72-.14.74-.14.74-.13.75-.14.76-.12.77-.13.78-.12.8-.12.8-.12.8-.11.81-.12.82-.1.83-.11.84-.1.85-.1.85-.1.86-.09.87-.09.87-.08.88-.08.88-.09.9-.07.9-.07.9-.07.9-.07.91-.06.91-.06.92-.06.92-.05.93-.05.93-.05.94-.04.93-.04.94-.03.95-.03.94-.03.95-.03.95-.02.95-.02.95-.01.95-.01h.95l.95-.01h2.86Z"/>
  <path fill="none" d="M508.5 461.67h299.67v60H508.5z"/>
  <text style="white-space:pre" transform="translate(508.5 465.63)"><tspan x="0" y="12.5" font-family="Courier New,Courier,Lucida Sans Typewriter,Lucida Typewriter,monospace" font-size="15.28" font-weight="bold" text-rendering="optimizeSpeed" textLength="91.69">    &lt;/div&gt;</tspan><tspan x="0" y="29.86" font-family="Courier New,Courier,Lucida Sans Typewriter,Lucida Typewriter,monospace" font-size="15.28" font-weight="bold" text-rendering="optimizeSpeed" textLength="82.52">  &lt;/body&gt;</tspan><tspan x="0" y="47.22" font-family="Courier New,Courier,Lucida Sans Typewriter,Lucida Typewriter,monospace" font-size="15.28" font-weight="bold" text-rendering="optimizeSpeed" textLength="64.18">&lt;/html&gt;</tspan></text>
  <path fill="#2ecc71" stroke="#2ecc71" d="M552.4 316.36h197.5-.5l.96-.01h1.9l.94.02.94.03.96.03.93.03.95.04.94.05.95.06.93.06.94.08.93.07.94.1.91.08.94.1.91.1.91.12.93.12.9.13.9.13.9.14.9.15.9.16.88.16.87.17.87.17.87.19.85.18.86.2.85.2.84.2.82.22.83.22.82.22.8.24.8.23.8.25.77.25.78.25.76.26.76.27.75.28.74.28.73.28.72.29.7.3.7.3.69.3.67.31.66.32.67.32.63.33.63.33.63.33.6.34.6.35.59.35.57.35.55.36.55.36.55.37.51.37.5.37.5.38.5.38.47.39.44.39.46.4.42.38.41.4.4.4.4.41.37.4.36.42.34.41.34.42.32.42.3.42.28.42.28.42.25.43.25.43.22.43.22.44.2.43.18.43.16.44.17.44.13.44.13.44.1.44.1.44.08.44.06.44.03.45.03.44.02.44v84.45-.24.45l-.02.44-.03.45-.07.45-.05.44-.09.44-.1.45-.1.44-.14.44-.13.44-.16.44-.17.44-.2.43-.2.44-.2.44-.24.43-.25.43-.25.43-.27.43-.3.42-.3.42-.31.42-.35.42-.34.41-.36.41-.38.42-.38.4-.4.4-.41.4-.44.4-.43.4-.47.4-.47.38-.48.39-.5.37-.5.38-.52.37-.53.38-.56.36-.54.36-.59.36-.57.35-.6.35-.6.34-.63.34-.63.33-.63.33-.65.33-.66.32-.69.32-.67.3-.7.3-.7.3-.72.3-.73.3-.73.28-.75.28-.75.27-.75.26-.77.27-.78.25-.8.25-.8.25-.8.23-.81.24-.83.22-.82.22-.84.21-.85.21-.84.2-.87.2-.86.18-.87.2-.88.16-.88.17-.88.16-.9.16-.9.15-.9.14-.9.14-.91.12-.92.12-.91.12-.94.1-.91.1-.93.1-.95.09-.93.08-.95.07-.93.07-.95.06-.95.05-.93.05-.96.04-.94.02-.96.03-.94.02h-.97l-.95.01H551.46l-.96-.01-.96-.02-.94-.03-.96-.02-.94-.04-.95-.05-.95-.05-.93-.06-.95-.07-.93-.07-.95-.08-.93-.09-.93-.1-.92-.1-.93-.1-.93-.12-.9-.12-.92-.12-.9-.14-.9-.14-.9-.15-.9-.16-.88-.16-.88-.17-.88-.17-.88-.19-.86-.18-.86-.2-.85-.2-.84-.2-.83-.22-.84-.22-.81-.22-.82-.24-.8-.23-.8-.25-.8-.25-.77-.25-.78-.27-.75-.26-.75-.27-.75-.28-.73-.29-.74-.29-.7-.3-.7-.3-.7-.3-.7-.3-.66-.32-.67-.32-.64-.33-.64-.33-.63-.33-.63-.34-.6-.34-.6-.35-.57-.35-.57-.36-.56-.36-.56-.36-.52-.38-.53-.37-.5-.38-.5-.38-.48-.38-.48-.39-.44-.4-.45-.38-.43-.4-.42-.4-.4-.4-.4-.41-.36-.42-.37-.4-.34-.42-.32-.42-.32-.42-.3-.42-.3-.42-.27-.43-.26-.43-.25-.43-.24-.44-.2-.43-.2-.44-.2-.43-.17-.44-.16-.44-.13-.44-.13-.44-.1-.44-.1-.45-.1-.44-.06-.44-.06-.45-.02-.45-.02-.44-.02-.45.5-83.6-.5-.16-.01-.45v-.44l.01-.45.04-.44.05-.45.06-.44.07-.45.1-.44.1-.45.13-.44.16-.44.14-.44.18-.44.2-.43.2-.44.2-.43.25-.44.25-.43.26-.42.27-.43.3-.42.3-.42.33-.42.34-.42.36-.42.37-.4.38-.42.4-.4.4-.4.44-.4.44-.4.44-.39.48-.39.47-.38.5-.38.5-.38.54-.38.52-.36.56-.37.56-.36.56-.35.6-.36.6-.35.6-.34.63-.33.63-.34.63-.32.67-.33.66-.31.69-.32.69-.3.7-.3.7-.3.73-.3.74-.28.74-.28.75-.28.75-.26.77-.26.79-.26.8-.25.8-.25.8-.23.8-.23.83-.23.82-.22.85-.21.85-.2.85-.2.86-.2.87-.19.87-.17.88-.17.88-.17.9-.16.88-.15.9-.14.9-.15.93-.12.9-.13.92-.11.93-.11.92-.1.94-.1.93-.09.94-.08.93-.07.96-.07.93-.06.96-.05.94-.04.96-.04.95-.03.94-.02.96-.01.94-.01h1.92l.94.02Z"/>
  <path fill="none" d="M510.67 344.67H806.5v94H510.67z"/>
  <text style="white-space:pre" transform="translate(510.67 349.65)"><tspan x="0" y="11.81" font-family="Courier New,Courier,Lucida Sans Typewriter,Lucida Typewriter,monospace" font-size="13.89" font-weight="bold" text-rendering="optimizeSpeed" textLength="250.04">&lt;?lsp include &quot;.header.lsp&quot; ?&gt;</tspan><tspan x="33.35" y="44.44" fill="#FF0" font-family="Courier New,Courier,Lucida Sans Typewriter,Lucida Typewriter,monospace" font-size="15.28" font-weight="bold" text-rendering="optimizeSpeed" textLength="174.2">  MAIN PAGE CONTENT</tspan><tspan x="0" y="79.17" font-family="Courier New,Courier,Lucida Sans Typewriter,Lucida Typewriter,monospace" font-size="15.28" font-weight="bold" text-rendering="optimizeSpeed" textLength="45.83">&lt;?lsp</tspan><tspan x="55.01" y="79.17" font-family="Courier New,Courier,Lucida Sans Typewriter,Lucida Typewriter,monospace" font-size="13.89" font-weight="bold" text-rendering="optimizeSpeed" textLength="208.38">include &quot;footer.shtml&quot; ?&gt;</tspan></text>
  <g fill="#903C39" stroke="#903C39">
    <path fill="none" stroke-width="4" d="m768.76 357.17 8.89-1.93 5.27-2 4.05-1.99 3.35-2.01 2.85-2.02 2.49-2.03 2.21-2.02 1.97-2.03 1.78-2.04 1.58-2.03 1.44-2.04 1.3-2.03 1.17-2.04 1.04-2.04.94-2.05.83-2.04.74-2.05.63-2.04.53-2.05.45-2.06.37-2.05.27-2.04.2-2.05.1-2.06.03-2.05-.05-2.05-.14-2.07-.22-2.05-.32-2.06-.39-2.07-.49-2.05-.58-2.07-.68-2.06-.77-2.07-.89-2.07-.99-2.06-1.11-2.07-1.24-2.08-1.4-2.06-1.53-2.08-1.72-2.09-1.91-2.07-2.16-2.08-2.45-2.1-2.8-2.08-3.28-2.1-2.88-1.51"/>
    <path stroke="none" d="m782.8 269-12.78-12.53 17.68-2.71z"/>
  </g>
  <g fill="#903C39" stroke="#903C39">
    <path fill="none" stroke-width="4" d="m779.04 427.06.24-.06.24-.06.25-.05.25-.07.27-.06.27-.05.27-.06.3-.05.29-.06.3-.05.3-.05.34-.06.34-.05.35-.05.38-.05.4-.05.4-.04.45-.05.5-.04.53-.03.58-.04.7-.03.84-.01 1.23.02 1.66.09 10.11 2.24 3.98 1.8 2.91 1.7 2.36 1.66 1.97 1.64 1.7 1.61 1.5 1.6 1.3 1.59 1.16 1.56 1.04 1.56.91 1.56.81 1.54.72 1.54.63 1.54.55 1.53.47 1.51.4 1.51.32 1.51.27 1.5.19 1.51.13 1.49.07 1.5v1.47l-.04 1.48-.11 1.48-.18 1.48-.23 1.46-.3 1.46-.35 1.46-.42 1.44-.48 1.45-.56 1.45-.62 1.44-.69 1.43-.78 1.42-.85 1.43-.94 1.4-1.04 1.4-1.14 1.4-1.25 1.4-1.38 1.38-1.54 1.36-1.72 1.35-1.92 1.34-2.2 1.32-2.57 1.29-3.15 1.24-4.19 1.17-6.12.41"/>
    <path stroke="none" d="m788.2 505.97-14.56-10.42 17.07-5.39z"/>
  </g>
  <g fill-rule="evenodd">
    <path fill="#00f" stroke="#0c0e7c" stroke-width="14.8" d="M429.31 288.69c-14.97-15.72 3.86 29.99 17.18 65.7-3.3-.03-44.69 14.11-78.87 14.11h-102.9c-36.41 0-65.72-51.52-65.72.03v132.25c2.02 53.57 29.31.03 65.72.03h102.9c34.18 0 75.57 13.13 78.87 13.1-14.92 33.93-45.02 86.61-17.18 67.71l148.04-136.86c13.23-13.63 3.9-17.59-.7-23.58L429.31 288.69z" transform="matrix(.27627 0 0 -.18613 324.98 470.89)"/>
    <path fill="#2b2bff" d="M212.03 356.75c-4.84.16-7.58 5.24-7.58 20.06v115.83c1.77 46.91 25.67.02 57.56.02h90.13c6.53 0 13.34.57 20.06 1.43 5.37-21.61 35.27-23.34 35.39-58.05.11-31.5-29.05-42.98-35.39-60.79-6.72.92-13.53 1.53-20.06 1.53h-90.13c-21.43 0-40.07-20.36-49.98-20.03z" filter="url(#a)" transform="matrix(.27627 0 0 -.18613 324.98 470.89)"/>
  </g>
</svg>
