<svg xmlns="http://www.w3.org/2000/svg" width="16" height="22.4" viewBox="0 0 16 22.4">
  <g id="Group_734" data-name="Group 734" transform="translate(-6 -2)">
    <path id="Path_173" data-name="Path 173" d="M14,24.4a.811.811,0,0,0,.64-.32C15.392,23.072,22,14.12,22,10A8,8,0,0,0,6,10c0,4.12,6.608,13.072,7.36,14.08A.811.811,0,0,0,14,24.4ZM10,10a4,4,0,1,1,4,4A4,4,0,0,1,10,10Z" fill="#fff"/>
    <path id="Path_174" data-name="Path 174" d="M17.8,11.4a2.4,2.4,0,1,0-2.4,2.4A2.407,2.407,0,0,0,17.8,11.4Z" transform="translate(-1.4 -1.4)" fill="#fff"/>
  </g>
</svg>
