<svg xmlns="http://www.w3.org/2000/svg" width="17.236" height="17.236" viewBox="0 0 17.236 17.236">
  <g id="Group_735" data-name="Group 735" transform="translate(-2.5 -2.5)">
    <path id="Path_175" data-name="Path 175" d="M50.892,29.573,42.6,37.224a.645.645,0,0,1-.194.124L40.814,38l.772-1.535a.643.643,0,0,1,.138-.184l8.288-7.651a.648.648,0,0,1,.914.034A.641.641,0,0,1,50.892,29.573Z" transform="translate(-31.362 -21.248)" fill="#fff"/>
    <path id="Path_176" data-name="Path 176" d="M5.947,6.809H2.5L6.809,2.5V5.947A.864.864,0,0,1,5.947,6.809Z" transform="translate(0 0)" fill="#fff"/>
    <path id="Path_177" data-name="Path 177" d="M11.526,17.3l-2.65,1.081a.862.862,0,0,1-1.1-1.185l1.288-2.561a1.905,1.905,0,0,1,.423-.558L15.427,8.6V3.362a.862.862,0,0,0-.862-.862h-5.6a.862.862,0,0,0-.862.862V7.24A.862.862,0,0,1,7.24,8.1H3.362a.862.862,0,0,0-.862.862v9.911a.862.862,0,0,0,.862.862h11.2a.862.862,0,0,0,.862-.862v-5l-3.309,3.055A1.938,1.938,0,0,1,11.526,17.3ZM4.439,10.041h7.519l-1.4,1.293H4.439a.646.646,0,0,1,0-1.293Zm0,2.585H9.157l-.542.5A3.193,3.193,0,0,0,8,13.919H4.439a.646.646,0,0,1,0-1.293ZM6.682,16.5H4.439a.646.646,0,1,1,0-1.293H7.332Z" transform="translate(0 0)" fill="#fff"/>
  </g>
</svg>
