<svg xmlns="http://www.w3.org/2000/svg" width="13" height="23.88" viewBox="0 0 13 23.88">
  <g id="Group_733" data-name="Group 733" transform="translate(-11.968 -1)">
    <path id="Path_168" data-name="Path 168" d="M16.163,24.779a5.2,5.2,0,0,0,4.079-9.3V4.084A3.068,3.068,0,0,0,17.158,1a3.1,3.1,0,0,0-3.084,3.084V15.476a5.16,5.16,0,0,0-1.99,5.273A5.222,5.222,0,0,0,16.163,24.779ZM14.72,16.422l.448-.348V4.134a1.943,1.943,0,0,1,1.94-1.94,1.986,1.986,0,0,1,1.99,1.94V16.073l.448.348a4.03,4.03,0,0,1,1.642,3.283,4.1,4.1,0,0,1-1.194,2.885,4.2,4.2,0,0,1-2.885,1.194,4.027,4.027,0,0,1-3.98-3.234A4.239,4.239,0,0,1,14.72,16.422Z" fill="#fff"/>
    <path id="Path_169" data-name="Path 169" d="M19.411,29.877a2.889,2.889,0,0,0,2.935-2.935c0-1.99-1.691-2.637-2.139-3.035V15.5H18.566v8.407c-.348.4-2.537,1.194-2.04,3.632A2.9,2.9,0,0,0,19.411,29.877Z" transform="translate(-2.254 -7.287)" fill="#fff"/>
    <path id="Path_170" data-name="Path 170" d="M34.036,7.8H31.2V8.944h2.836a.552.552,0,0,0,.547-.547A.513.513,0,0,0,34.036,7.8Z" transform="translate(-9.665 -3.417)" fill="#fff"/>
    <path id="Path_171" data-name="Path 171" d="M33.539,14.447a.552.552,0,0,0-.547-.547H31.3v1.144h1.691A.636.636,0,0,0,33.539,14.447Z" transform="translate(-9.715 -6.483)" fill="#fff"/>
    <path id="Path_172" data-name="Path 172" d="M34.683,20.447a.552.552,0,0,0-.547-.547H31.3v1.144h2.836A.6.6,0,0,0,34.683,20.447Z" transform="translate(-9.715 -9.498)" fill="#fff"/>
  </g>
</svg>
