<svg id="Group_736" data-name="Group 736" xmlns="http://www.w3.org/2000/svg" width="19.59" height="16.978" viewBox="0 0 19.59 16.978">
  <path id="Path_178" data-name="Path 178" d="M18.766,16.461h0a4.255,4.255,0,0,1-3.1-2.364,7.441,7.441,0,0,0,3.921-6.26C19.59,3.509,15.2,0,9.795,0S0,3.509,0,7.836s4.386,7.836,9.795,7.836a12.18,12.18,0,0,0,2.11-.187,9.554,9.554,0,0,0,6.8,1.4c.162-.013.232-.1.232-.213A.209.209,0,0,0,18.766,16.461ZM5.877,9.142A1.306,1.306,0,1,1,7.183,7.836,1.306,1.306,0,0,1,5.877,9.142Zm3.918,0A1.306,1.306,0,1,1,11.1,7.836,1.306,1.306,0,0,1,9.795,9.142Zm3.918,0a1.306,1.306,0,1,1,1.306-1.306A1.306,1.306,0,0,1,13.713,9.142Z" fill="#fff"/>
</svg>
